<?xml version="1.0" encoding="UTF-8" standalone="no"?><!DOCTYPE svg PUBLIC "-//W3C//DTD SVG 1.1//EN" "http://www.w3.org/Graphics/SVG/1.1/DTD/svg11.dtd"><svg width="100%" height="100%" viewBox="0 0 115 93" version="1.1" xmlns="http://www.w3.org/2000/svg" xmlns:xlink="http://www.w3.org/1999/xlink" xml:space="preserve" xmlns:serif="http://www.serif.com/" style="fill-rule:evenodd;clip-rule:evenodd;stroke-linecap:round;stroke-linejoin:round;stroke-miterlimit:1.5;"><path d="M57.24,0.24c31.459,0 57,20.702 57,46.2c-0,25.498 -25.541,46.2 -57,46.2c-31.459,0 -57,-20.702 -57,-46.2c-0,-25.498 25.541,-46.2 57,-46.2Zm-20.493,22.461c8.977,-5.37 23.332,-3.619 35.432,5.157c12.994,9.425 19.095,23.839 15.253,34.289c0.715,1.225 1.136,2.729 1.136,4.354c0,2.819 -4.097,3.691 -7.738,3.96c-8.918,5.895 -23.711,4.288 -36.129,-4.719c-12.414,-9.004 -18.536,-22.562 -15.708,-32.868c-0.437,-0.669 -0.681,-1.601 -0.681,-2.895c-0,-4.106 -3.31,-6.986 3.124,-7.44c2.215,-0.156 3.974,-0.135 5.311,0.162Z" style="fill:#f3cf3f;stroke:#f3cf3f;stroke-width:0.24px;"/></svg>